<?xml version="1.0" encoding="utf-8"?>
<!-- Generator: Adobe Illustrator 19.1.1, SVG Export Plug-In . SVG Version: 6.00 Build 0)  -->
<svg version="1.1" id="vertical" xmlns="http://www.w3.org/2000/svg" xmlns:xlink="http://www.w3.org/1999/xlink" x="0px" y="0px"
	 viewBox="0 0 3600 2880" style="enable-background:new 0 0 3600 2880;" xml:space="preserve">
<style type="text/css">
	.st0{fill:#808080;}
	.st1{fill:#00867A;}
	.st2{fill:#F15A24;}
</style>
<g>
	<g>
		<path class="st0" d="M257.3,1988.1h121.5v436.4h239.7V2527H257.3V1988.1z"/>
		<path class="st0" d="M668.9,2322c0-134.7,103.3-214.9,213.2-214.9c126.5,0,193.4,85.1,193.4,196.7c0,22.3-4.1,44.6-5.8,54.5H790.4
			c11.6,59.5,55.4,86,122.3,86c37.2,0,69.4-9.9,105.8-28.9l40.5,73.6c-47.1,29.8-108.3,47.9-162.8,47.9
			C768.1,2536.9,668.9,2458.4,668.9,2322z M792.1,2276.5h175.2c-5.8-50.4-33.9-76.9-81-76.9C838.4,2199.7,804.5,2225.3,792.1,2276.5
			z"/>
		<path class="st0" d="M1307.8,2212.1h-164.5V2117h286V2527h-121.5V2212.1z M1282.2,1979c0-44.6,33.9-76,81-76c47.1,0,81,31.4,81,76
			c0,44.6-33.9,73.6-81,73.6C1316.1,2052.5,1282.2,2023.6,1282.2,1979z"/>
		<path class="st0" d="M1700.4,2482.3h-3.3l-9.9,44.6h-95.1v-579.4h121.5v142.2l-4.1,64.5h2.5c30.6-29.8,72.7-47.1,112.4-47.1
			c102.5,0,165.3,81.8,165.3,207.5c0,141.3-86,222.3-177.7,222.3C1774,2536.9,1734.3,2517.9,1700.4,2482.3z M1864.9,2317
			c0-73.6-24-110.8-75.2-110.8c-26.4,0-50.4,11.6-76,38v166.1c23.1,19.8,49.6,27.3,71.1,27.3
			C1829.3,2437.7,1864.9,2401.3,1864.9,2317z"/>
		<path class="st0" d="M2046.7,2117h99.2l9.1,54.6h3.3c35.5-34.7,80.2-64.5,141.3-64.5c92.6,0,133.9,63.6,133.9,167V2527H2312
			v-237.2c0-54.5-15.7-79.3-60.3-79.3c-33.1,0-54.5,14.9-83.5,43V2527h-121.5V2117z"/>
		<path class="st0" d="M2671.5,2212.1h-164.5V2117h286V2527h-121.5V2212.1z M2645.9,1979c0-44.6,33.9-76,81-76c47.1,0,81,31.4,81,76
			c0,44.6-33.9,73.6-81,73.6C2679.8,2052.5,2645.9,2023.6,2645.9,1979z"/>
		<path class="st0" d="M2954.2,2461.7l214.1-249.6h-188.4V2117h357.1v64.5L3122,2431.9h220.7v95.1h-388.5V2461.7z"/>
	</g>
	<g>
		<g>
			<g>
				<path class="st1" d="M865,1089.3V942.5l883.6-599.3v187.1l-713,480.9v9.5l713,480.9v187.1L865,1089.3z"/>
			</g>
		</g>
		<path class="st1" d="M1851.4,343.1v182.8c26.5-16.7,57.9-26.4,91.5-26.4c95.1,0,172.1,77.1,172.1,172.1c0,11.7-1.2,23.1-3.4,34.1
			l452.8,305.4v9.5l-713,480.9v187.1l883.6-599.3V942.5L1851.4,343.1z"/>
		<polygon class="st2" points="1748.7,1160.5 1748.7,627.8 1748.6,627.9 1748.6,633.7 1599.4,734.4 1599.4,1280.5 2036.1,1280.5 
			2036.1,1160.5 		"/>
		<path class="st2" d="M1951.9,827.2c-42.8,0-81.2-13.2-108.1-37.1c-28.3-25.2-43.3-61.2-43.3-104c0-91.7,72.7-141.1,141.1-141.1
			c94,0,127.5,67,127.5,129.7c0,12.3-1.6,24.8-2.8,33H1880l2.7,10.1c9.3,34.6,36.4,51.5,82.9,51.5c20.8,0,40.6-4.5,64.8-14.8
			l24.6,44.9C2024.8,816.6,1986,827.2,1951.9,827.2z M1945,602.9c-32.1,0-52.9,15.7-61.8,46.8l-2.9,10.2h119.5l-1.4-9.2
			C1993.8,619.4,1975.3,602.9,1945,602.9z"/>
	</g>
</g>
</svg>
